<?xml version="1.0" encoding="UTF-8" standalone="no"?>
<!DOCTYPE svg PUBLIC "-//W3C//DTD SVG 1.1//EN"
 "http://www.w3.org/Graphics/SVG/1.1/DTD/svg11.dtd">
<!-- Generated by graphviz version 2.43.0 (0)
 -->
<!-- Title: %3 Pages: 1 -->
<svg width="474pt" height="332pt"
 viewBox="0.00 0.00 473.64 332.00" xmlns="http://www.w3.org/2000/svg" xmlns:xlink="http://www.w3.org/1999/xlink">
<g id="graph0" class="graph" transform="scale(1 1) rotate(0) translate(4 328)">
<title>%3</title>
<polygon fill="white" stroke="transparent" points="-4,4 -4,-328 469.64,-328 469.64,4 -4,4"/>
<!-- 0 -->
<g id="node1" class="node">
<title>0</title>
<ellipse fill="none" stroke="black" cx="237.6" cy="-306" rx="67.69" ry="18"/>
<text text-anchor="middle" x="237.6" y="-302.3" font-family="Times,serif" font-size="14.00">t1=LOAD(x)</text>
</g>
<!-- 1 -->
<g id="node2" class="node">
<title>1</title>
<ellipse fill="none" stroke="black" cx="54.6" cy="-234" rx="54.69" ry="18"/>
<text text-anchor="middle" x="54.6" y="-230.3" font-family="Times,serif" font-size="14.00">t2=t1 +4</text>
</g>
<!-- 0&#45;&gt;1 -->
<g id="edge1" class="edge">
<title>0&#45;&gt;1</title>
<path fill="none" stroke="black" d="M200.56,-290.83C171.07,-279.55 129.69,-263.73 98.52,-251.8"/>
<polygon fill="black" stroke="black" points="99.38,-248.38 88.79,-248.08 96.88,-254.92 99.38,-248.38"/>
</g>
<!-- 2 -->
<g id="node3" class="node">
<title>2</title>
<ellipse fill="none" stroke="black" cx="178.6" cy="-234" rx="51.19" ry="18"/>
<text text-anchor="middle" x="178.6" y="-230.3" font-family="Times,serif" font-size="14.00">t3=t1 *8</text>
</g>
<!-- 0&#45;&gt;2 -->
<g id="edge2" class="edge">
<title>0&#45;&gt;2</title>
<path fill="none" stroke="black" d="M223.31,-288.05C216.14,-279.54 207.31,-269.07 199.4,-259.68"/>
<polygon fill="black" stroke="black" points="201.87,-257.18 192.75,-251.79 196.51,-261.69 201.87,-257.18"/>
</g>
<!-- 3 -->
<g id="node4" class="node">
<title>3</title>
<ellipse fill="none" stroke="black" cx="297.6" cy="-234" rx="50.09" ry="18"/>
<text text-anchor="middle" x="297.6" y="-230.3" font-family="Times,serif" font-size="14.00">t4=t1 &#45;4</text>
</g>
<!-- 0&#45;&gt;3 -->
<g id="edge3" class="edge">
<title>0&#45;&gt;3</title>
<path fill="none" stroke="black" d="M252.12,-288.05C259.6,-279.33 268.84,-268.54 277.04,-258.98"/>
<polygon fill="black" stroke="black" points="279.77,-261.18 283.62,-251.31 274.45,-256.62 279.77,-261.18"/>
</g>
<!-- 4 -->
<g id="node5" class="node">
<title>4</title>
<ellipse fill="none" stroke="black" cx="415.6" cy="-234" rx="50.09" ry="18"/>
<text text-anchor="middle" x="415.6" y="-230.3" font-family="Times,serif" font-size="14.00">t5=t1 /2</text>
</g>
<!-- 0&#45;&gt;4 -->
<g id="edge4" class="edge">
<title>0&#45;&gt;4</title>
<path fill="none" stroke="black" d="M274.05,-290.67C302.96,-279.3 343.39,-263.39 373.65,-251.5"/>
<polygon fill="black" stroke="black" points="375.06,-254.7 383.08,-247.79 372.5,-248.19 375.06,-254.7"/>
</g>
<!-- 5 -->
<g id="node6" class="node">
<title>5</title>
<ellipse fill="none" stroke="black" cx="174.6" cy="-162" rx="57.69" ry="18"/>
<text text-anchor="middle" x="174.6" y="-158.3" font-family="Times,serif" font-size="14.00">t6=t2 * t3</text>
</g>
<!-- 1&#45;&gt;5 -->
<g id="edge5" class="edge">
<title>1&#45;&gt;5</title>
<path fill="none" stroke="black" d="M80.34,-217.98C97.7,-207.86 120.81,-194.37 139.81,-183.29"/>
<polygon fill="black" stroke="black" points="141.61,-186.3 148.48,-178.23 138.08,-180.25 141.61,-186.3"/>
</g>
<!-- 2&#45;&gt;5 -->
<g id="edge6" class="edge">
<title>2&#45;&gt;5</title>
<path fill="none" stroke="black" d="M177.61,-215.7C177.17,-207.98 176.64,-198.71 176.14,-190.11"/>
<polygon fill="black" stroke="black" points="179.64,-189.89 175.57,-180.1 172.65,-190.29 179.64,-189.89"/>
</g>
<!-- 6 -->
<g id="node7" class="node">
<title>6</title>
<ellipse fill="none" stroke="black" cx="301.6" cy="-162" rx="50.89" ry="18"/>
<text text-anchor="middle" x="301.6" y="-158.3" font-family="Times,serif" font-size="14.00">t7=t4&#45;t5</text>
</g>
<!-- 3&#45;&gt;6 -->
<g id="edge7" class="edge">
<title>3&#45;&gt;6</title>
<path fill="none" stroke="black" d="M298.58,-215.7C299.02,-207.98 299.55,-198.71 300.05,-190.11"/>
<polygon fill="black" stroke="black" points="303.54,-190.29 300.62,-180.1 296.55,-189.89 303.54,-190.29"/>
</g>
<!-- 4&#45;&gt;6 -->
<g id="edge8" class="edge">
<title>4&#45;&gt;6</title>
<path fill="none" stroke="black" d="M391.42,-218.15C374.91,-208.02 352.82,-194.45 334.68,-183.31"/>
<polygon fill="black" stroke="black" points="336.48,-180.32 326.13,-178.07 332.82,-186.28 336.48,-180.32"/>
</g>
<!-- 7 -->
<g id="node8" class="node">
<title>7</title>
<ellipse fill="none" stroke="black" cx="237.6" cy="-90" rx="57.69" ry="18"/>
<text text-anchor="middle" x="237.6" y="-86.3" font-family="Times,serif" font-size="14.00">t8=t6 * t7</text>
</g>
<!-- 5&#45;&gt;7 -->
<g id="edge9" class="edge">
<title>5&#45;&gt;7</title>
<path fill="none" stroke="black" d="M189.53,-144.41C197.45,-135.61 207.33,-124.63 216.07,-114.92"/>
<polygon fill="black" stroke="black" points="218.68,-117.24 222.77,-107.47 213.48,-112.56 218.68,-117.24"/>
</g>
<!-- 6&#45;&gt;7 -->
<g id="edge10" class="edge">
<title>6&#45;&gt;7</title>
<path fill="none" stroke="black" d="M286.75,-144.76C278.71,-135.97 268.62,-124.93 259.67,-115.14"/>
<polygon fill="black" stroke="black" points="262.13,-112.65 252.8,-107.63 256.97,-117.38 262.13,-112.65"/>
</g>
<!-- 8 -->
<g id="node9" class="node">
<title>8</title>
<ellipse fill="none" stroke="black" cx="237.6" cy="-18" rx="77.19" ry="18"/>
<text text-anchor="middle" x="237.6" y="-14.3" font-family="Times,serif" font-size="14.00">STORE(y , t8 )</text>
</g>
<!-- 7&#45;&gt;8 -->
<g id="edge11" class="edge">
<title>7&#45;&gt;8</title>
<path fill="none" stroke="black" d="M237.6,-71.7C237.6,-63.98 237.6,-54.71 237.6,-46.11"/>
<polygon fill="black" stroke="black" points="241.1,-46.1 237.6,-36.1 234.1,-46.1 241.1,-46.1"/>
</g>
</g>
</svg>
