<?xml version="1.0" encoding="UTF-8" standalone="no"?>
<!DOCTYPE svg PUBLIC "-//W3C//DTD SVG 1.1//EN"
 "http://www.w3.org/Graphics/SVG/1.1/DTD/svg11.dtd">
<!-- Generated by graphviz version 2.43.0 (0)
 -->
<!-- Title: %3 Pages: 1 -->
<svg width="316pt" height="332pt"
 viewBox="0.00 0.00 315.69 332.00" xmlns="http://www.w3.org/2000/svg" xmlns:xlink="http://www.w3.org/1999/xlink">
<g id="graph0" class="graph" transform="scale(1 1) rotate(0) translate(4 328)">
<title>%3</title>
<polygon fill="white" stroke="transparent" points="-4,4 -4,-328 311.69,-328 311.69,4 -4,4"/>
<!-- 0 -->
<g id="node1" class="node">
<title>0</title>
<ellipse fill="none" stroke="black" cx="164.34" cy="-306" rx="67.69" ry="18"/>
<text text-anchor="middle" x="164.34" y="-302.3" font-family="Times,serif" font-size="14.00">t1=LOAD(x)</text>
</g>
<!-- 1 -->
<g id="node2" class="node">
<title>1</title>
<ellipse fill="none" stroke="black" cx="98.34" cy="-234" rx="61.99" ry="18"/>
<text text-anchor="middle" x="98.34" y="-230.3" font-family="Times,serif" font-size="14.00">t2=t1 + t1</text>
</g>
<!-- 0&#45;&gt;1 -->
<g id="edge1" class="edge">
<title>0&#45;&gt;1</title>
<path fill="none" stroke="black" d="M148.7,-288.41C140.4,-279.61 130.05,-268.63 120.9,-258.92"/>
<polygon fill="black" stroke="black" points="123.28,-256.34 113.87,-251.47 118.19,-261.15 123.28,-256.34"/>
</g>
<!-- 2 -->
<g id="node3" class="node">
<title>2</title>
<ellipse fill="none" stroke="black" cx="230.34" cy="-234" rx="52.79" ry="18"/>
<text text-anchor="middle" x="230.34" y="-230.3" font-family="Times,serif" font-size="14.00">t1=t1 &#45; 4</text>
</g>
<!-- 0&#45;&gt;2 -->
<g id="edge2" class="edge">
<title>0&#45;&gt;2</title>
<path fill="none" stroke="black" d="M179.98,-288.41C188.29,-279.61 198.64,-268.63 207.79,-258.92"/>
<polygon fill="black" stroke="black" points="210.5,-261.15 214.81,-251.47 205.41,-256.34 210.5,-261.15"/>
</g>
<!-- 3 -->
<g id="node4" class="node">
<title>3</title>
<ellipse fill="none" stroke="black" cx="123.34" cy="-162" rx="53.89" ry="18"/>
<text text-anchor="middle" x="123.34" y="-158.3" font-family="Times,serif" font-size="14.00">t2=t1 /t2</text>
</g>
<!-- 1&#45;&gt;3 -->
<g id="edge4" class="edge">
<title>1&#45;&gt;3</title>
<path fill="none" stroke="black" d="M104.39,-216.05C107.21,-208.18 110.62,-198.62 113.77,-189.79"/>
<polygon fill="black" stroke="black" points="117.11,-190.87 117.17,-180.28 110.51,-188.52 117.11,-190.87"/>
</g>
<!-- 2&#45;&gt;3 -->
<g id="edge3" class="edge">
<title>2&#45;&gt;3</title>
<path fill="none" stroke="black" d="M207.13,-217.81C192.09,-207.97 172.29,-195.02 155.71,-184.18"/>
<polygon fill="black" stroke="black" points="157.17,-180.95 146.88,-178.4 153.34,-186.8 157.17,-180.95"/>
</g>
<!-- 4 -->
<g id="node5" class="node">
<title>4</title>
<ellipse fill="none" stroke="black" cx="230.34" cy="-90" rx="57.69" ry="18"/>
<text text-anchor="middle" x="230.34" y="-86.3" font-family="Times,serif" font-size="14.00">t1=t2 * t1</text>
</g>
<!-- 2&#45;&gt;4 -->
<g id="edge6" class="edge">
<title>2&#45;&gt;4</title>
<path fill="none" stroke="black" d="M230.34,-215.87C230.34,-191.67 230.34,-147.21 230.34,-118.39"/>
<polygon fill="black" stroke="black" points="233.84,-118.19 230.34,-108.19 226.84,-118.19 233.84,-118.19"/>
</g>
<!-- 3&#45;&gt;4 -->
<g id="edge5" class="edge">
<title>3&#45;&gt;4</title>
<path fill="none" stroke="black" d="M146.82,-145.64C161.77,-135.86 181.35,-123.05 197.79,-112.3"/>
<polygon fill="black" stroke="black" points="200.09,-114.97 206.55,-106.57 196.26,-109.11 200.09,-114.97"/>
</g>
<!-- 6 -->
<g id="node7" class="node">
<title>6</title>
<ellipse fill="none" stroke="black" cx="77.34" cy="-90" rx="77.19" ry="18"/>
<text text-anchor="middle" x="77.34" y="-86.3" font-family="Times,serif" font-size="14.00">STORE(z , t2 )</text>
</g>
<!-- 3&#45;&gt;6 -->
<g id="edge8" class="edge">
<title>3&#45;&gt;6</title>
<path fill="none" stroke="black" d="M112.21,-144.05C106.81,-135.84 100.21,-125.79 94.21,-116.66"/>
<polygon fill="black" stroke="black" points="97.11,-114.71 88.7,-108.28 91.26,-118.55 97.11,-114.71"/>
</g>
<!-- 5 -->
<g id="node6" class="node">
<title>5</title>
<ellipse fill="none" stroke="black" cx="230.34" cy="-18" rx="77.19" ry="18"/>
<text text-anchor="middle" x="230.34" y="-14.3" font-family="Times,serif" font-size="14.00">STORE(y , t1 )</text>
</g>
<!-- 4&#45;&gt;5 -->
<g id="edge7" class="edge">
<title>4&#45;&gt;5</title>
<path fill="none" stroke="black" d="M230.34,-71.7C230.34,-63.98 230.34,-54.71 230.34,-46.11"/>
<polygon fill="black" stroke="black" points="233.84,-46.1 230.34,-36.1 226.84,-46.1 233.84,-46.1"/>
</g>
</g>
</svg>
