<?xml version="1.0" encoding="UTF-8" standalone="no"?>
<!DOCTYPE svg PUBLIC "-//W3C//DTD SVG 1.1//EN"
 "http://www.w3.org/Graphics/SVG/1.1/DTD/svg11.dtd">
<!-- Generated by graphviz version 2.43.0 (0)
 -->
<!-- Title: %3 Pages: 1 -->
<svg width="333pt" height="332pt"
 viewBox="0.00 0.00 333.24 332.00" xmlns="http://www.w3.org/2000/svg" xmlns:xlink="http://www.w3.org/1999/xlink">
<g id="graph0" class="graph" transform="scale(1 1) rotate(0) translate(4 328)">
<title>%3</title>
<polygon fill="white" stroke="transparent" points="-4,4 -4,-328 329.24,-328 329.24,4 -4,4"/>
<!-- 0 -->
<g id="node1" class="node">
<title>0</title>
<ellipse fill="none" stroke="black" cx="82.94" cy="-306" rx="79.09" ry="18"/>
<text text-anchor="middle" x="82.94" y="-302.3" font-family="Times,serif" font-size="14.00">0: t1=LOAD(x)</text>
</g>
<!-- 3 -->
<g id="node4" class="node">
<title>3</title>
<ellipse fill="none" stroke="black" cx="82.94" cy="-234" rx="63.89" ry="18"/>
<text text-anchor="middle" x="82.94" y="-230.3" font-family="Times,serif" font-size="14.00">3: t4=t1*t1</text>
</g>
<!-- 0&#45;&gt;3 -->
<g id="edge2" class="edge">
<title>0&#45;&gt;3</title>
<path fill="none" stroke="black" d="M82.94,-287.7C82.94,-279.98 82.94,-270.71 82.94,-262.11"/>
<polygon fill="black" stroke="black" points="86.44,-262.1 82.94,-252.1 79.44,-262.1 86.44,-262.1"/>
</g>
<!-- 1 -->
<g id="node2" class="node">
<title>1</title>
<ellipse fill="none" stroke="black" cx="245.94" cy="-234" rx="79.09" ry="18"/>
<text text-anchor="middle" x="245.94" y="-230.3" font-family="Times,serif" font-size="14.00">1: t2=LOAD(y)</text>
</g>
<!-- 2 -->
<g id="node3" class="node">
<title>2</title>
<ellipse fill="none" stroke="black" cx="245.94" cy="-162" rx="58.49" ry="18"/>
<text text-anchor="middle" x="245.94" y="-158.3" font-family="Times,serif" font-size="14.00">2: t3=t2/8</text>
</g>
<!-- 1&#45;&gt;2 -->
<g id="edge1" class="edge">
<title>1&#45;&gt;2</title>
<path fill="none" stroke="black" d="M245.94,-215.7C245.94,-207.98 245.94,-198.71 245.94,-190.11"/>
<polygon fill="black" stroke="black" points="249.44,-190.1 245.94,-180.1 242.44,-190.1 249.44,-190.1"/>
</g>
<!-- 5 -->
<g id="node6" class="node">
<title>5</title>
<ellipse fill="none" stroke="black" cx="245.94" cy="-90" rx="67.69" ry="18"/>
<text text-anchor="middle" x="245.94" y="-86.3" font-family="Times,serif" font-size="14.00">5: t3=t4+t3</text>
</g>
<!-- 2&#45;&gt;5 -->
<g id="edge4" class="edge">
<title>2&#45;&gt;5</title>
<path fill="none" stroke="black" d="M245.94,-143.7C245.94,-135.98 245.94,-126.71 245.94,-118.11"/>
<polygon fill="black" stroke="black" points="249.44,-118.1 245.94,-108.1 242.44,-118.1 249.44,-118.1"/>
</g>
<!-- 4 -->
<g id="node5" class="node">
<title>4</title>
<ellipse fill="none" stroke="black" cx="82.94" cy="-162" rx="57.69" ry="18"/>
<text text-anchor="middle" x="82.94" y="-158.3" font-family="Times,serif" font-size="14.00">4: t4=^t4</text>
</g>
<!-- 3&#45;&gt;4 -->
<g id="edge3" class="edge">
<title>3&#45;&gt;4</title>
<path fill="none" stroke="black" d="M82.94,-215.7C82.94,-207.98 82.94,-198.71 82.94,-190.11"/>
<polygon fill="black" stroke="black" points="86.44,-190.1 82.94,-180.1 79.44,-190.1 86.44,-190.1"/>
</g>
<!-- 4&#45;&gt;5 -->
<g id="edge5" class="edge">
<title>4&#45;&gt;5</title>
<path fill="none" stroke="black" d="M115.54,-147C140.55,-136.26 175.32,-121.33 202.67,-109.58"/>
<polygon fill="black" stroke="black" points="204.2,-112.74 212,-105.58 201.43,-106.31 204.2,-112.74"/>
</g>
<!-- 7 -->
<g id="node8" class="node">
<title>7</title>
<ellipse fill="none" stroke="black" cx="79.94" cy="-90" rx="79.89" ry="18"/>
<text text-anchor="middle" x="79.94" y="-86.3" font-family="Times,serif" font-size="14.00">7: STORE(z,t4)</text>
</g>
<!-- 4&#45;&gt;7 -->
<g id="edge7" class="edge">
<title>4&#45;&gt;7</title>
<path fill="none" stroke="black" d="M82.2,-143.7C81.87,-135.98 81.47,-126.71 81.1,-118.11"/>
<polygon fill="black" stroke="black" points="84.6,-117.95 80.68,-108.1 77.61,-118.25 84.6,-117.95"/>
</g>
<!-- 6 -->
<g id="node7" class="node">
<title>6</title>
<ellipse fill="none" stroke="black" cx="245.94" cy="-18" rx="79.09" ry="18"/>
<text text-anchor="middle" x="245.94" y="-14.3" font-family="Times,serif" font-size="14.00">6: STORE(y,t3)</text>
</g>
<!-- 5&#45;&gt;6 -->
<g id="edge6" class="edge">
<title>5&#45;&gt;6</title>
<path fill="none" stroke="black" d="M245.94,-71.7C245.94,-63.98 245.94,-54.71 245.94,-46.11"/>
<polygon fill="black" stroke="black" points="249.44,-46.1 245.94,-36.1 242.44,-46.1 249.44,-46.1"/>
</g>
</g>
</svg>
